<?xml version="1.0" encoding="UTF-8"?>
<!-- Generator: Adobe Illustrator 15.0.2, SVG Export Plug-In . SVG Version: 6.00 Build 0)  -->
<!DOCTYPE svg PUBLIC "-//W3C//DTD SVG 1.1//EN" "http://www.w3.org/Graphics/SVG/1.1/DTD/svg11.dtd">
<svg xmlns="http://www.w3.org/2000/svg" xmlns:xlink="http://www.w3.org/1999/xlink" version="1.1" id="Layer_1" x="0px" y="0px" width="128px" height="164.62px" viewBox="0 0 512 658.491" enable-background="new 0 0 512 658.491" xml:space="preserve">
<path d="M312.041,546.407v28.021l-112.084,28.021v-28.021L312.041,546.407z M312.041,588.438v28.021L199.957,644.48V616.46  L312.041,588.438z M312.041,532.397l-112.084,28.021c0,0,0-42.031-24.299-56.042c0,0-0.219-182.136-70.271-308.229  c0,0-31.523-84.062,150.612-84.062s150.612,84.062,150.612,84.062c-70.052,126.094-66.55,308.229-66.55,308.229  C312.041,504.376,312.041,532.397,312.041,532.397z M255.999,266.198c42.031,0,84.062,7.006,84.062,7.006l31.523-63.047  c31.523-70.053-59.544-70.053-115.586-70.053s-147.109,0-115.586,70.053l31.523,63.047  C171.937,273.204,213.968,266.198,255.999,266.198z M284.02,637.476v21.016h-56.041v-7.005L284.02,637.476z M255.999,0  c7.744,0,14.011,6.273,14.011,14.01v42.032c0,7.737-6.267,14.011-14.011,14.011c-7.737,0-14.011-6.273-14.011-14.011V14.01  C241.988,6.273,248.262,0,255.999,0z M385.596,22.206c6.704,3.872,9.003,12.437,5.117,19.142l-21.016,36.394  c-3.858,6.704-12.424,9.003-19.128,5.131c-6.704-3.865-9.003-12.437-5.131-19.141l21.016-36.395  C370.326,20.633,378.892,18.341,385.596,22.206z M499.978,89.857c3.64,6.834,1.04,15.316-5.787,18.942l-37.105,19.736  c-6.828,3.633-15.311,1.04-18.95-5.794c-3.64-6.827-1.04-15.311,5.802-18.95l37.105-19.729  C487.869,80.43,496.353,83.022,499.978,89.857z M511.689,220.384c-1.614,7.566-9.058,12.396-16.609,10.789l-41.129-8.736  c-7.552-1.607-12.396-9.051-10.781-16.617c1.614-7.573,9.044-12.402,16.61-10.795l41.114,8.743  C508.461,205.375,513.305,212.812,511.689,220.384z M476.855,311.404c-2.9,7.176-11.069,10.638-18.252,7.744L419.637,303.4  c-7.169-2.9-10.645-11.062-7.744-18.238c2.9-7.177,11.069-10.645,18.252-7.744l38.967,15.748  C476.28,296.066,479.756,304.228,476.855,311.404z M126.402,22.206c6.704-3.865,15.27-1.573,19.142,5.131l21.016,36.395  c3.865,6.704,1.573,15.275-5.131,19.141c-6.697,3.872-15.27,1.573-19.135-5.131l-21.016-36.394  C117.406,34.643,119.705,26.078,126.402,22.206z M12.013,89.857c3.633-6.835,12.116-9.428,18.943-5.795l37.113,19.729  c6.834,3.64,9.427,12.123,5.794,18.95c-3.633,6.834-12.115,9.427-18.95,5.794L17.808,108.8  C10.974,105.174,8.381,96.691,12.013,89.857z M0.309,220.377c-1.608-7.565,3.222-15.002,10.795-16.609l41.107-8.743  c7.573-1.607,15.01,3.222,16.617,10.795c1.607,7.566-3.222,15.003-10.788,16.617l-41.115,8.736  C9.359,232.78,1.916,227.95,0.309,220.377z M35.15,311.404c-2.901-7.177,0.568-15.338,7.737-18.238l38.974-15.748  c7.177-2.9,15.338,0.567,18.238,7.744c2.9,7.169-0.567,15.338-7.744,18.238l-38.967,15.748  C46.212,322.042,38.043,318.58,35.15,311.404z" fill="#000000"/>
</svg>
