<?xml version="1.0" encoding="UTF-8"?>
<!-- Generator: Adobe Illustrator 15.0.2, SVG Export Plug-In . SVG Version: 6.00 Build 0)  -->
<!DOCTYPE svg PUBLIC "-//W3C//DTD SVG 1.1//EN" "http://www.w3.org/Graphics/SVG/1.1/DTD/svg11.dtd">
<svg xmlns="http://www.w3.org/2000/svg" xmlns:xlink="http://www.w3.org/1999/xlink" version="1.1" id="Layer_1" x="0px" y="0px" width="64px" height="114.5px" viewBox="0 0 512 916.066" enable-background="new 0 0 512 916.066" xml:space="preserve">
<path d="M349.955,728.155v46.978l-187.91,46.978v-46.978L349.955,728.155z M349.955,798.622V845.6l-187.91,46.978V845.6  L349.955,798.622z M349.955,704.666l-187.91,46.979c0,0,0-70.467-40.739-93.956c0,0-0.366-305.355-117.811-516.755  C3.495,140.934-49.355,0,256,0s252.506,140.934,252.506,140.934C391.062,352.333,396.934,657.688,396.934,657.688  C349.955,657.688,349.955,704.666,349.955,704.666z M256,258.378c70.467,0,140.934,11.744,140.934,11.744l52.85-105.7  C502.633,46.978,349.955,46.978,256,46.978s-246.633,0-193.783,117.444l52.85,105.7C115.066,270.122,185.533,258.378,256,258.378z   M302.978,880.833v35.233h-93.955v-11.744L302.978,880.833z" fill="#000000"/>
</svg>
